# xmcd
#
# Track frame offsets:
#	150
#	11809
#	23338
#	37556
#	54519
#	67929
#	82704
#	95433
#	110411
#	122082
#	136755
#	151585
#	164052
#	174328
#	183707
#
# Disc length: 3002 seconds
#
# Revision: 1
# Processed by: cddbd v1.5.2PL0 Copyright (c) Steve Scherf et al.
# Submitted via: EasyCDDAExtractor 10.0.2.1
#
DISCID=a70bb80f
DTITLE=Klamydia - 2009 - Rujoa taidetta
DYEAR=2009
DGENRE=PunkRock
TTITLE0=Mä oon tyhmä
TTITLE1=Miljoonan kilsan tennarit
TTITLE2=Lähtijän geenit
TTITLE3=Rujoa taidetta
TTITLE4=Yhden päivän sankari
TTITLE5=Ajolähtö
TTITLE6=Niilo Ahkio
TTITLE7=Typeryys
TTITLE8=Haaveet elättää
TTITLE9=Persealasti
TTITLE10=Hän on poissa
TTITLE11=Latva B-kakkonen
TTITLE12=Eliksiirii
TTITLE13=Onni suosii kusipäitä
TTITLE14=Voittajan malja
EXTD=YEAR: 2009
EXTT0=
EXTT1=
EXTT2=
EXTT3=
EXTT4=
EXTT5=
EXTT6=
EXTT7=
EXTT8=
EXTT9=
EXTT10=
EXTT11=
EXTT12=
EXTT13=
EXTT14=
PLAYORDER=
